<?xml version="1.0" standalone="no"?>
<!DOCTYPE svg PUBLIC "-//W3C//DTD SVG 20010904//EN"
 "http://www.w3.org/TR/2001/REC-SVG-20010904/DTD/svg10.dtd">
<svg version="1.0" xmlns="http://www.w3.org/2000/svg"
 width="480.000000pt" height="480.000000pt" viewBox="0 0 480.000000 480.000000"
 preserveAspectRatio="xMidYMid meet">
<metadata>
Created by potrace 1.14, written by Peter Selinger 2001-2017
</metadata>
<g transform="translate(0.000000,480.000000) scale(0.100000,-0.100000)"
fill="#000000" stroke="none">
<path d="M2219 4796 c-2 -2 -35 -6 -74 -10 -38 -3 -81 -8 -95 -11 -13 -2 -42
-7 -65 -10 -87 -13 -293 -69 -408 -111 -236 -87 -497 -234 -687 -388 -74 -60
-242 -223 -311 -301 -89 -102 -219 -291 -293 -429 -78 -144 -188 -421 -210
-529 -64 -306 -70 -363 -70 -612 0 -189 5 -266 25 -380 6 -33 12 -71 14 -85
12 -74 91 -342 120 -405 7 -16 23 -54 35 -84 54 -138 192 -368 319 -531 85
-110 283 -308 391 -392 244 -189 505 -327 780 -410 52 -16 102 -31 110 -33
149 -34 193 -43 265 -51 28 -3 57 -8 65 -11 27 -10 443 -12 510 -2 36 5 90 12
120 15 44 6 184 35 271 58 125 33 296 98 438 168 111 55 351 205 409 256 13
11 42 35 64 54 23 18 84 74 134 123 345 336 588 783 679 1250 33 167 40 256
39 470 0 187 -5 261 -25 380 -6 33 -12 71 -14 85 -10 63 -68 265 -104 362 -84
226 -228 481 -378 669 -69 86 -251 273 -332 339 -248 206 -564 376 -859 461
-73 21 -183 48 -222 54 -14 2 -68 12 -120 20 -84 15 -509 32 -521 21z"/>
</g>
</svg>
